<?xml version="1.0" encoding="utf-8" ?>
<svg baseProfile="full" height="422px" version="1.1" viewBox="0 0 318 422" width="318px" xmlns="http://www.w3.org/2000/svg" xmlns:ev="http://www.w3.org/2001/xml-events" xmlns:xlink="http://www.w3.org/1999/xlink"><defs /><rect fill="none" height="100%" width="100%" x="0" y="0" /><path d="M 252.5,115.0 C 241.5,112.0 259.5,118.0 247.5,130.0 C 235.5,142.0 240.5,138.0 222.5,145.0 C 204.5,152.0 216.5,149.5 202.5,147.5 C 188.5,145.5 198.5,142.0 187.5,140.0 C 176.5,138.0 178.0,112.5 175.0,142.5 C 172.0,172.5 175.0,181.0 180.0,215.0 C 185.0,249.0 186.5,206.5 187.5,227.5 C 188.5,248.5 176.5,203.5 182.5,267.5 C 188.5,331.5 191.5,341.5 202.5,387.5 C 213.5,433.5 199.0,404.5 210.0,382.5 C 221.0,360.5 218.0,354.5 230.0,332.5 C 242.0,310.5 232.0,327.5 240.0,327.5 C 248.0,327.5 240.0,322.5 250.0,332.5 C 260.0,342.5 259.0,362.5 265.0,352.5 C 271.0,342.5 261.0,336.5 265.0,307.5 C 269.0,278.5 271.0,306.0 275.0,280.0 C 279.0,254.0 278.0,267.5 275.0,242.5 C 272.0,217.5 269.5,232.5 267.5,217.5 C 265.5,202.5 264.0,214.0 270.0,205.0 C 276.0,196.0 277.5,211.0 282.5,195.0 C 287.5,179.0 285.5,188.0 282.5,165.0 C 279.5,142.0 287.0,157.5 275.0,137.5 C 263.0,117.5 263.5,118.0 252.5,115.0 Z" fill="#1e3a6e" fill-opacity="0.9" stroke="#0a1f40" stroke-width="1.5" /><path d="M 195.0,40.0 C 195.0,40.0 193.5,36.0 177.5,40.0 C 161.5,44.0 171.0,50.0 155.0,50.0 C 139.0,50.0 168.5,46.0 137.5,40.0 C 106.5,34.0 104.5,25.0 77.5,35.0 C 50.5,45.0 80.0,50.0 70.0,65.0 C 60.0,80.0 63.5,58.5 52.5,72.5 C 41.5,86.5 46.5,84.0 42.5,100.0 C 38.5,116.0 40.5,106.5 42.5,112.5 C 44.5,118.5 44.5,109.0 47.5,115.0 C 50.5,121.0 54.0,115.5 50.0,127.5 C 46.0,139.5 43.5,112.0 37.5,145.0 C 31.5,178.0 31.0,181.0 35.0,210.0 C 39.0,239.0 44.5,204.5 47.5,217.5 C 50.5,230.5 44.5,216.5 42.5,242.5 C 40.5,268.5 39.5,259.5 42.5,282.5 C 45.5,305.5 43.0,272.0 50.0,300.0 C 57.0,328.0 53.0,338.5 60.0,352.5 C 67.0,366.5 60.5,344.0 67.5,335.0 C 74.5,326.0 69.5,330.0 77.5,330.0 C 85.5,330.0 75.5,314.0 87.5,335.0 C 99.5,356.0 95.5,362.5 107.5,382.5 C 119.5,402.5 108.5,415.0 117.5,385.0 C 126.5,355.0 124.0,362.5 130.0,307.5 C 136.0,252.5 141.5,289.5 132.5,247.5 C 123.5,205.5 119.5,243.5 107.5,202.5 C 95.5,161.5 103.5,174.0 102.5,145.0 C 101.5,116.0 94.0,139.0 105.0,130.0 C 116.0,121.0 113.0,130.5 130.0,122.5 C 147.0,114.5 139.5,136.0 147.5,110.0 C 155.5,84.0 138.0,85.5 150.0,57.5 C 162.0,29.5 159.5,47.0 177.5,40.0 C 195.5,33.0 195.0,40.0 195.0,40.0 Z" fill="#1e3a6e" fill-opacity="0.9" stroke="#0a1f40" stroke-width="1.5" /><text fill="#1e3a6e" font-family="Microsoft YaHei, SimHei, sans-serif" font-size="15px" font-weight="bold" text-anchor="middle" x="159.0" y="418.0">腘绳</text></svg>